<svg id="Layer_1" data-name="Layer 1" xmlns="http://www.w3.org/2000/svg" viewBox="0 0 595.28 841.89"><defs><style>.cls-1{fill:none;stroke-width:2px;}.cls-1,.cls-2{stroke:#000;stroke-miterlimit:10;}.cls-2,.cls-3{fill:#fff;}</style></defs><rect class="cls-1" x="97.04" y="329.15" width="53.48" height="56.15" transform="translate(-9.57 3.46) rotate(-1.54)"/><rect class="cls-2" x="94.04" y="326.15" width="53.48" height="56.15" transform="translate(-9.49 3.38) rotate(-1.54)"/><path d="M112.92,344.27c.2-1.35.35-2.67.61-4A10.41,10.41,0,0,1,115.9,335a5,5,0,0,1,4.62-1.83,7.61,7.61,0,0,1,2.41.54,6.29,6.29,0,0,1,3,3.42,15.55,15.55,0,0,1,1.11,5.63c0,.39.06.77.09,1.22.57,0,1.13,0,1.69,0a29.56,29.56,0,0,1,3.75.47c.37,0,.57.31.6.72,0,.85.11,1.7.18,2.55.18,2,.37,4.07.54,6.1.16,1.85.3,3.69.45,5.54s.3,3.69.43,5.53.23,3.5.35,5.25c0,.58.1,1.16.14,1.75s-.07.79-.69.87a28.27,28.27,0,0,1-4.94.52c-1.17-.05-2.35,0-3.52,0q-4.7-.06-9.38-.15l-5.86-.14-4.55-.09c-.74,0-.92-.18-.87-.9.12-1.63.27-3.25.38-4.88.07-.95.1-1.9.16-2.84.08-1.14.19-2.28.28-3.42.08-.9.14-1.8.21-2.7.12-1.45.25-2.91.37-4.36.06-.8.1-1.61.17-2.41.09-1.14.21-2.28.31-3.42.07-.87.13-1.74.17-2.62,0-.7.22-.89.93-.92Zm11.22.85-10.13.15c0,.35,0,.59,0,.83,0,.4-.23.64-.55.63s-.51-.27-.51-.67c0-.24,0-.48,0-.71h-4.48c-.67,8.9-1.32,17.73-2,26.58,7.92.34,15.73.23,23.63.29,0-1,0-2,0-2.91-.06-1.85-.17-3.69-.23-5.55-.07-2.41-.1-4.83-.15-7.24,0-.57,0-1.13-.05-1.69-.08-1.8-.18-3.6-.24-5.4,0-1.27,0-2.54-.05-3.82,0-.16,0-.32-.06-.51h-4c0,.2,0,.34,0,.49s0,.34,0,.51c0,.36-.31.67-.59.61a.59.59,0,0,1-.53-.61Zm0-1.05a1.7,1.7,0,0,0,0-.38c-.07-1.21-.1-2.43-.24-3.63a9.91,9.91,0,0,0-1.22-3.81,4,4,0,0,0-1.52-1.55,1.26,1.26,0,0,0-1.18-.1,5.08,5.08,0,0,0-2.68,2.58,14.45,14.45,0,0,0-1.27,5.08,19.23,19.23,0,0,0,0,2Zm10.12,27.13c-.69-8.71-1.36-17.25-2-25.8l-1.91-.23c0,.22-.05.41-.05.6,0,1,.1,1.9.14,2.85l.3,7.23c.05,1.2.11,2.39.14,3.58.06,2.2.12,4.4.15,6.59,0,1.44,0,2.88,0,4.32a7.13,7.13,0,0,0,.07,1,7.91,7.91,0,0,0,.26.78,6.41,6.41,0,0,0,2.47-.33c-.47-.69-.47-.72-.28-1.28Zm-19.37-26.92c.14-1.15.26-2.24.39-3.32a10.48,10.48,0,0,1,2.76-6.32,4,4,0,0,0-1.4,1,8.55,8.55,0,0,0-1.79,3.41,19.64,19.64,0,0,0-.77,5.2Zm11.16-.22c0-.67,0-1.28,0-1.88a13,13,0,0,0-1-4.76,5.58,5.58,0,0,0-1.73-2.31c0,.09,0,.14,0,.18a9.49,9.49,0,0,1,1.46,3.48,25.48,25.48,0,0,1,.53,4.93,1.8,1.8,0,0,0,.06.36Z"/><path class="cls-3" d="M124.14,345.12v1a.59.59,0,0,0,.53.61c.28.06.56-.25.59-.61,0-.17,0-.34,0-.51s0-.29,0-.49h4c0,.19.05.35.06.51,0,1.28,0,2.55.05,3.82.06,1.8.16,3.6.24,5.4,0,.56,0,1.12.05,1.69.05,2.41.08,4.83.15,7.24.06,1.86.17,3.7.23,5.55,0,.95,0,1.9,0,2.91-7.9-.06-15.71,0-23.63-.29.66-8.85,1.31-17.68,2-26.58h4.48c0,.23,0,.47,0,.71,0,.4.19.66.51.67s.54-.23.55-.63c0-.24,0-.48,0-.83Zm-11.18,15c.64-.13,1.11-.11,1.3.56,0,.09.31.12.47.17a3.31,3.31,0,0,0,.12-.45c0-.09-.06-.18-.09-.27-.24-.74-.48-1.48-.73-2.22-.2-.58-.2-.58-.91-.51-.34,1-.69,2-1,3a.48.48,0,0,0,0,.43.37.37,0,0,0,.57-.13A3.87,3.87,0,0,0,113,360.15Zm11.79-2.08-.64,1.05c-.25.39-.52.76-.73,1.17s-.08.64.33.67c.56,0,1.12,0,1.68,0,.2,0,.37-.1.36-.37s-.19-.32-.4-.33l-1.08,0c.15-.27.24-.44.33-.59.33-.52.67-1,1-1.55a3,3,0,0,0,.21-.71c-.75,0-1.38,0-2,0a.51.51,0,0,0-.34.27c-.07.24.11.35.33.37S124.34,358.05,124.75,358.07Zm-5.45,0V360a3.85,3.85,0,0,0,0,.59.37.37,0,0,0,.45.36c.24,0,.28-.2.28-.43,0-.68,0-1.35,0-2,0-.12,0-.23,0-.34.83-.2.83-.2.72-.76-.67,0-1.35,0-2,0-.11,0-.32.16-.31.22a.55.55,0,0,0,.24.37A2.32,2.32,0,0,0,119.3,358.1Zm-2.35,0a4.57,4.57,0,0,0,.71-.15.42.42,0,0,0,.22-.32c0-.1-.17-.25-.27-.26q-1,0-2,0a.39.39,0,0,0-.27.26.42.42,0,0,0,.21.32,2.5,2.5,0,0,0,.64.14c0,.71,0,1.39,0,2.07a1.33,1.33,0,0,0,.1.56.38.38,0,0,0,.34.18.43.43,0,0,0,.27-.27,2.07,2.07,0,0,0,0-.5C117,359.48,117,358.82,117,358.11Zm4.8-.71c0,1.11,0,2.13,0,3.14a.52.52,0,0,0,.35.37c.12,0,.27-.2.39-.33s0-.09,0-.14l0-2.91s0-.08-.08-.13Z"/><path class="cls-3" d="M124.14,344.07l-8.08.2a19.23,19.23,0,0,1,0-2,14.45,14.45,0,0,1,1.27-5.08A5.08,5.08,0,0,1,120,334.6a1.26,1.26,0,0,1,1.18.1,4,4,0,0,1,1.52,1.55,9.91,9.91,0,0,1,1.22,3.81c.14,1.2.17,2.42.24,3.63A1.7,1.7,0,0,1,124.14,344.07Z"/><path class="cls-3" d="M134.26,371.2l-.74-.66c-.19.56-.19.59.28,1.28a6.41,6.41,0,0,1-2.47.33,7.91,7.91,0,0,1-.26-.78,7.13,7.13,0,0,1-.07-1c0-1.44,0-2.88,0-4.32,0-2.19-.09-4.39-.15-6.59,0-1.19-.09-2.38-.14-3.58l-.3-7.23c0-.95-.1-1.9-.14-2.85,0-.19,0-.38.05-.6l1.91.23C132.9,354,133.57,362.49,134.26,371.2Zm-1.85-1.53.71.65c.06-.13.1-.18.1-.22a.46.46,0,0,0-.05-.21,3.16,3.16,0,0,1-.55-2c-.16-1.86-.27-3.73-.42-5.6a7.49,7.49,0,0,0-.15-.8l-.19,0c-.31,2.78.29,5.56-.07,8.44Z"/><path class="cls-3" d="M114.89,344.28h-.81a19.64,19.64,0,0,1,.77-5.2,8.55,8.55,0,0,1,1.79-3.41,4,4,0,0,1,1.4-1,10.48,10.48,0,0,0-2.76,6.32C115.15,342,115,343.13,114.89,344.28Z"/><path class="cls-3" d="M126.05,344.06h-.72a1.8,1.8,0,0,1-.06-.36,25.48,25.48,0,0,0-.53-4.93,9.49,9.49,0,0,0-1.46-3.48s0-.09,0-.18a5.58,5.58,0,0,1,1.73,2.31,13,13,0,0,1,1,4.76C126.08,342.78,126.05,343.39,126.05,344.06Z"/><path d="M113,360.15a3.87,3.87,0,0,1-.25.59.37.37,0,0,1-.57.13.48.48,0,0,1,0-.43c.33-1,.68-2,1-3,.71-.07.71-.07.91.51.25.74.49,1.48.73,2.22,0,.09.1.18.09.27a3.31,3.31,0,0,1-.12.45c-.16-.05-.45-.08-.47-.17C114.07,360,113.6,360,113,360.15Zm.81-.75-.31-.86-.29.86Z"/><path d="M124.75,358.07c-.41,0-.7,0-1-.05s-.4-.13-.33-.37a.51.51,0,0,1,.34-.27c.63,0,1.26,0,2,0a3,3,0,0,1-.21.71c-.3.53-.64,1-1,1.55-.09.15-.18.32-.33.59l1.08,0c.21,0,.38.07.4.33s-.16.36-.36.37c-.56,0-1.12.05-1.68,0-.41,0-.53-.26-.33-.67s.48-.78.73-1.17Z"/><path d="M119.3,358.1a2.32,2.32,0,0,1-.61-.13.55.55,0,0,1-.24-.37c0-.06.2-.22.31-.22.68,0,1.36,0,2,0,.11.56.11.56-.72.76,0,.11,0,.22,0,.34,0,.68,0,1.35,0,2,0,.23,0,.39-.28.43a.37.37,0,0,1-.45-.36,3.85,3.85,0,0,1,0-.59Z"/><path d="M117,358.11c0,.71,0,1.37,0,2a2.07,2.07,0,0,1,0,.5.43.43,0,0,1-.27.27.38.38,0,0,1-.34-.18,1.33,1.33,0,0,1-.1-.56c0-.68,0-1.36,0-2.07a2.5,2.5,0,0,1-.64-.14.42.42,0,0,1-.21-.32.39.39,0,0,1,.27-.26q1,0,2,0c.1,0,.27.16.27.26a.42.42,0,0,1-.22.32A4.57,4.57,0,0,1,117,358.11Z"/><path d="M121.75,357.4h.66c0,.05.08.09.08.13l0,2.91c0,.05,0,.12,0,.14s-.27.33-.39.33a.52.52,0,0,1-.35-.37C121.73,359.53,121.75,358.51,121.75,357.4Z"/><path d="M132.41,369.67l-.62.29c.36-2.88-.24-5.66.07-8.44l.19,0a7.49,7.49,0,0,1,.15.8c.15,1.87.26,3.74.42,5.6a3.16,3.16,0,0,0,.55,2,.46.46,0,0,1,.05.21s0,.09-.1.22Z"/><path class="cls-3" d="M113.77,359.4h-.6l.29-.86Z"/><rect class="cls-1" x="184.06" y="330.28" width="53.48" height="56.15" transform="translate(-9.57 5.8) rotate(-1.54)"/><rect class="cls-2" x="181.06" y="327.28" width="53.48" height="56.15" transform="translate(-9.49 5.72) rotate(-1.54)"/><rect class="cls-1" x="270.5" y="329.84" width="53.48" height="56.15" transform="translate(-9.52 8.13) rotate(-1.54)"/><rect class="cls-2" x="267.5" y="326.84" width="53.48" height="56.15" transform="translate(-9.44 8.05) rotate(-1.54)"/><rect class="cls-1" x="355.61" y="329.06" width="53.48" height="56.15" transform="translate(-9.47 10.42) rotate(-1.54)"/><rect class="cls-2" x="352.61" y="326.06" width="53.48" height="56.15" transform="translate(-9.39 10.34) rotate(-1.54)"/><rect class="cls-1" x="443.61" y="329.5" width="53.48" height="56.15" transform="translate(-9.45 12.79) rotate(-1.54)"/><rect class="cls-2" x="440.61" y="326.5" width="53.48" height="56.15" transform="translate(-9.37 12.7) rotate(-1.54)"/><path class="cls-3" d="M338.9,358.4l.84-.4c.49.17.29.62.38,1Z"/><path d="M218.22,355.32a1.34,1.34,0,0,1,.82,1.38c.07,2.37.2,4.74.31,7.11,0,.37.06.72-.28,1a.69.69,0,0,0-.12.5c.09,1.45.2,2.89.29,4.34,0,.52.06,1,.07,1.58a.6.6,0,0,1-.51.7,2.54,2.54,0,0,1-.61.07l-17.14.66c-1,0-2,0-3,0-.55,0-1.09.1-1.64.14s-.89,0-1.07-.53c-.48-.13-.53-.83-1.12-.85-.1,0-.27-.24-.29-.39a14.06,14.06,0,0,1-.06-1.45c0-.82,0-1.65,0-2.48,0-.57,0-1.14,0-1.72a.51.51,0,0,0-.23-.42c-.35-.13-.34-.4-.35-.67q-.17-4.05-.31-8.08c0-.63,0-.65.67-.89,0-.18,0-.39,0-.59l0-.76c-.09-3.22-.19-6.44-.28-9.66,0-.67,0-.75.71-.85a10.08,10.08,0,0,1,1.23-.15,15,15,0,0,0,2.83-.53c.49-.11.85-.14,1.18.37a2,2,0,0,0,1,.59,10.73,10.73,0,0,0,3.08.61,12.93,12.93,0,0,0,4.51-.44,10.84,10.84,0,0,0,1.79-.69,1.26,1.26,0,0,0,.75-.67.65.65,0,0,1,.8-.36c.86.14,1.73.26,2.6.35a11.86,11.86,0,0,0,1.58.05.92.92,0,0,1,1.08.8c.88.16,1.12.45,1.16,1.34,0,1.4.09,2.81.17,4.21C217.93,351.08,218.08,353.16,218.22,355.32Zm-1.05,8-.3-7.88-23,.88a64.09,64.09,0,0,0,.24,7.88Zm-3.56-9.88,1.18,1.12,1.26,0-.46-8.14c-.29.31-.55.36-.76.08a1.64,1.64,0,0,0-1.14-.59c-.69-.11-1.15-.42-1.2-1.16l-.48.08-.17-1.45-.5,0c0,.33-.09.62-.13.91a6.28,6.28,0,0,1-2.19,4.17,6.19,6.19,0,0,1-4.6,1.5,5.94,5.94,0,0,1-4.69-2.53,7.38,7.38,0,0,1-1.27-3.31,1.86,1.86,0,0,0-.08-.26l-.7.14a17.91,17.91,0,0,0,.63,2.35,5.87,5.87,0,0,0,2.54,3.16,7.75,7.75,0,0,0,8.41-.36c.18-.11.32-.33.63-.24a6.18,6.18,0,0,1-1.78,1.46,7.34,7.34,0,0,1-5.63.35,6.78,6.78,0,0,1-3.92-3.28,18.73,18.73,0,0,1-.91-1.92c-.18-.39-.25-.44-.62-.31l-1.67.64c-.12,0-.3.14-.32.23-.06.44-.47.42-.73.56,0,3,.07,5.91.23,8.85,1,0,1.9,0,2.82,0l11-.5c1.33-.06,2.67-.15,4-.2.4,0,.64-.13.69-.58A.89.89,0,0,1,213.61,353.41Zm-18.86,17.13a2.07,2.07,0,0,0,.28.06c2,0,3.95,0,5.93-.09,1.82-.05,3.64-.17,5.45-.26l6.63-.33c1.08-.05,2.16-.08,3.25-.12l.71,0a53.39,53.39,0,0,0-.35-5.58c-5.51,0-21.2.65-21.87.87ZM200,346.15c.6,1.67,2.91,3.16,5.51,2.89a5.23,5.23,0,0,0,4.38-3.33c-.66.13-1.27.55-2,.33a2.81,2.81,0,0,1,.66-.44l1.45-.79a.72.72,0,0,0,.38-.9,14,14,0,0,1-11,.48.87.87,0,0,0,.69,1c.7.22,1.39.47,2.07.72.09,0,.15.13.24.23-.11.06-.17.13-.22.13Zm-5.74-1c1-.52,2.15-.29,3-1.11a25.28,25.28,0,0,0-3,.25Zm18.21-1.79c.14.19.2.35.28.36.85.17,1.7.32,2.54.46.06,0,.12,0,.18-.06l0-.61Zm3,2.06c.13-.35,0-.5-.29-.5s-.78,0-1.17,0v.19Zm2.4,15h0l.11,2.86h0Zm-1.09-7.12h0l0,.87h0Z"/><path d="M219.69,332c.33,0,.34.3.39.51.11.56.19,1.13.31,1.69s.22.85.34,1.26a2,2,0,0,0,1.49,1.39c.76.18,1.53.27,2.29.4a4.64,4.64,0,0,1,.74.16c.07,0,.11.17.21.34-.33.1-.6.19-.88.26-.62.16-1.25.28-1.87.45a2.83,2.83,0,0,0-2,2.6c-.1.68-.15,1.37-.23,2.05,0,.19-.06.41-.3.37s-.24-.21-.35-.34,0-.13,0-.2c-.06-.34-.1-.68-.18-1q-.18-.78-.42-1.53a2.51,2.51,0,0,0-2.1-1.75c-.65-.13-1.31-.18-2-.28a5.47,5.47,0,0,1-.58-.15c-.11-.42.18-.46.41-.51.5-.11,1-.19,1.49-.29l.13,0a2.88,2.88,0,0,0,2.55-2.67c.06-.66.18-1.31.25-2C219.39,332.46,219.41,332.17,219.69,332ZM218,337.92A3.2,3.2,0,0,1,220,340a3.43,3.43,0,0,1,2-2.24,3,3,0,0,1-2.14-1.86A3.85,3.85,0,0,1,218,337.92Z"/><path class="cls-3" d="M217.17,363.29l-23,.88a64.09,64.09,0,0,1-.24-7.88l23-.88Zm-16.38-2.14a.43.43,0,0,0,.62-.15.52.52,0,0,1,.92,0c.2.24.35.23.6,0-.26-.65-.49-1.29-.76-1.91a.74.74,0,0,0-.41-.29c-.07,0-.25.12-.29.23C201.23,359.75,201,360.44,200.79,361.15Zm8.54-2-1,1.74a4.58,4.58,0,0,0,1.65,0c.06,0,.13-.13.13-.21a.25.25,0,0,0-.14-.19c-.24,0-.49,0-.75-.06.22-.66.76-1.12.87-1.86l-1.61.06C208.53,359.28,209.07,358.86,209.33,359.12Zm-3.5,1.9c.55,0,.56,0,.54-.43s0-.92-.05-1.32c.16-.26.66-.08.53-.62-.39,0-.79,0-1.2,0-.19,0-.47,0-.49.24s.3.19.47.25.06.06.14.14Zm-1-2,0-.17a1,1,0,0,0-.33-.17,8,8,0,0,0-1.09,0c-.12,0-.22.17-.33.26l.35.21.19.12c0,.45,0,.91.05,1.36s.17.5.6.34l-.07-1.77Zm3.2,1.86c0-.68,0-1.34-.09-2,0-.11-.18-.21-.27-.31-.09.11-.25.21-.25.32,0,.57,0,1.14.05,1.71C207.48,361,207.65,361,208,360.92Z"/><path class="cls-3" d="M213.61,353.41a.89.89,0,0,0-.58.69c-.05.45-.29.56-.69.58-1.33.05-2.67.14-4,.2l-11,.5c-.92,0-1.83,0-2.82,0-.16-2.94-.25-5.87-.23-8.85.26-.14.67-.12.73-.56,0-.09.2-.18.32-.23l1.67-.64c.37-.13.44-.08.62.31a18.73,18.73,0,0,0,.91,1.92,6.78,6.78,0,0,0,3.92,3.28,7.34,7.34,0,0,0,5.63-.35,6.18,6.18,0,0,0,1.78-1.46c-.31-.09-.45.13-.63.24a7.75,7.75,0,0,1-8.41.36,5.87,5.87,0,0,1-2.54-3.16,17.91,17.91,0,0,1-.63-2.35l.7-.14a1.86,1.86,0,0,1,.08.26,7.38,7.38,0,0,0,1.27,3.31,5.94,5.94,0,0,0,4.69,2.53,6.19,6.19,0,0,0,4.6-1.5,6.28,6.28,0,0,0,2.19-4.17c0-.29.09-.58.13-.91l.5,0,.17,1.45.48-.08c0,.74.51,1.05,1.2,1.16a1.64,1.64,0,0,1,1.14.59c.21.28.47.23.76-.08l.46,8.14-1.26,0ZM196,354c-.37.52-.38.55-.34,1C196.2,354.83,196.23,354.73,196,354Z"/><path class="cls-3" d="M194.75,370.54l0-5.48c.67-.22,16.36-.84,21.87-.87a53.39,53.39,0,0,1,.35,5.58l-.71,0c-1.09,0-2.17.07-3.25.12l-6.63.33c-1.81.09-3.63.21-5.45.26-2,.06-4,.07-5.93.09A2.07,2.07,0,0,1,194.75,370.54Zm18.76-1.14c1.27.43,1.84.1,2.18-.84A4,4,0,0,0,213.51,369.4Z"/><path class="cls-3" d="M200,346.15l2.14.31c.05,0,.11-.07.22-.13-.09-.1-.15-.2-.24-.23-.68-.25-1.37-.5-2.07-.72a.87.87,0,0,1-.69-1,14,14,0,0,0,11-.48.72.72,0,0,1-.38.9l-1.45.79a2.81,2.81,0,0,0-.66.44c.74.22,1.35-.2,2-.33a5.23,5.23,0,0,1-4.38,3.33C202.91,349.31,200.6,347.82,200,346.15Zm3.44,2.55,3-.11c.36,0,.48-.19.46-.54,0-.52,0-1.05-.06-1.55l.72-.4a9.25,9.25,0,0,0-4.84.22C203.58,347,203,347.93,203.44,348.7Z"/><path class="cls-3" d="M194.26,345.19l0-.86a25.28,25.28,0,0,1,3-.25C196.41,344.9,195.23,344.67,194.26,345.19Z"/><path class="cls-3" d="M212.47,343.4l3,.15,0,.61c-.06,0-.12.07-.18.06-.84-.14-1.69-.29-2.54-.46C212.67,343.75,212.61,343.59,212.47,343.4Z"/><path class="cls-3" d="M215.48,345.46l-1.47-.28V345c.39,0,.78-.05,1.17,0S215.61,345.11,215.48,345.46Z"/><ellipse class="cls-3" cx="217.93" cy="361.84" ry="2.02" transform="translate(-13.68 8.6) rotate(-2.19)"/><path class="cls-3" d="M216.79,353.29l0,.88h0l0-.87Z"/><path class="cls-3" d="M218,337.92a3.85,3.85,0,0,0,1.91-2.05,3,3,0,0,0,2.14,1.86,3.43,3.43,0,0,0-2,2.24A3.2,3.2,0,0,0,218,337.92Z"/><path d="M200.79,361.15c.23-.71.44-1.4.68-2.08,0-.11.22-.25.29-.23a.74.74,0,0,1,.41.29c.27.62.5,1.26.76,1.91-.25.19-.4.2-.6,0a.52.52,0,0,0-.92,0A.43.43,0,0,1,200.79,361.15Z"/><path d="M209.33,359.12c-.26-.26-.8.16-.81-.51l1.61-.06c-.11.74-.65,1.2-.87,1.86.26,0,.51,0,.75.06a.25.25,0,0,1,.14.19c0,.08-.07.21-.13.21a4.58,4.58,0,0,1-1.65,0Z"/><path d="M205.83,361l-.06-1.72c-.08-.08-.1-.12-.14-.14s-.49.08-.47-.25.3-.24.49-.24c.41,0,.81,0,1.2,0,.13.54-.37.36-.53.62,0,.4,0,.86.05,1.32S206.38,361,205.83,361Z"/><path d="M204.82,359.06l-.61.22.07,1.77c-.43.16-.59,0-.6-.34s0-.91-.05-1.36l-.19-.12-.35-.21c.11-.09.21-.24.33-.26a8,8,0,0,1,1.09,0,1,1,0,0,1,.33.17Z"/><path d="M208,360.92c-.37.11-.54,0-.56-.27,0-.57-.05-1.14-.05-1.71,0-.11.16-.21.25-.32.09.1.26.2.27.31C208,359.58,208,360.24,208,360.92Z"/><path d="M196,354c.24.69.21.79-.34,1C195.61,354.59,195.62,354.56,196,354Z"/><path d="M213.51,369.4a4,4,0,0,1,2.18-.84C215.35,369.5,214.78,369.83,213.51,369.4Z"/><path d="M203.44,348.7c-.48-.77.14-1.69-.69-2.38a9.25,9.25,0,0,1,4.84-.22l-.72.4c0,.5,0,1,.06,1.55,0,.35-.1.53-.46.54Zm.58-1.93c0,1,0,1,.42,1-.57-.43-.14-.69.12-1Zm2.07-.09-.35,0,.22,1.06C206.23,347.39,206.07,347.07,206.09,346.68Z"/><path class="cls-3" d="M204,346.77l.54,0c-.26.33-.69.59-.12,1C204,347.77,204,347.77,204,346.77Z"/><path class="cls-3" d="M206.09,346.68c0,.39.14.71-.13,1.09l-.22-1.06Z"/><path d="M297.68,359.78c.25.14.53.32.83.47l13.11,6.8,2.42,1.24a2.39,2.39,0,0,1,1.32,2.8,2.34,2.34,0,0,1-2.29,1.81l-35.44,1a2.23,2.23,0,0,1-2.29-1.48,2.37,2.37,0,0,1,.57-2.62,4,4,0,0,1,.71-.52l14-8.19c1.14-.67,2.26-1.36,3.4-2a.8.8,0,0,0,.45-.82c-.06-.73-.05-1.47-.07-2.2a1.3,1.3,0,0,1,.88-1.37,5.22,5.22,0,0,0,.95-.53,1.85,1.85,0,0,0,.88-2,2.13,2.13,0,0,0-1.54-1.69,2.39,2.39,0,0,0-3.11,1.65,2.24,2.24,0,0,0,.64,2.27.89.89,0,0,1,.07,1.41c-.22.27-.44.29-.68.06a4.75,4.75,0,0,1-1.13-4.39,3.7,3.7,0,0,1,3.52-2.4,3.55,3.55,0,0,1,3.28,2.4,2.88,2.88,0,0,1-.8,3.27c-.52.44-1.11.79-1.75,1.23l.07,2.51a2.08,2.08,0,0,0,1.32-.58.62.62,0,0,1,.86-.17,1.09,1.09,0,0,1,.38,1A9.63,9.63,0,0,1,297.68,359.78Zm8.65,12.07,6.68-.19a1.16,1.16,0,0,0,1.2-.88,1.25,1.25,0,0,0-.71-1.39l-6.3-3.28c-3.85-2-7.72-4-11.57-6a1.09,1.09,0,0,0-1.21.06c-2.57,1.54-5.16,3.07-7.74,4.59l-9.41,5.54a2,2,0,0,0-.53.37,1.1,1.1,0,0,0-.3,1.21,1.13,1.13,0,0,0,1.05.77h.3c4-.09,8.07-.16,12.1-.28,3.7-.1,7.39-.24,11.08-.36ZM296,358.94l1.22.62c-.09-.4.11-.85-.38-1Z"/><path d="M294.07,345.48c-1.21.87-2.37,1.72-3.56,2.59l-.52-.38c.39-1.47.76-2.89,1.14-4.36l-2.26-1.58c-.35-.26-.72-.51-1.05-.79-.12-.09-.27-.33-.23-.4a1.15,1.15,0,0,1,.46-.41,1.22,1.22,0,0,1,.43,0l3.37-.18.25-.06c.52-1.5.86-3.08,1.47-4.57a.82.82,0,0,1,.74.66c.43,1.27.89,2.52,1.36,3.83l2.49.05c.49,0,1,0,1.47,0,.26,0,.55,0,.58.31a.85.85,0,0,1-.28.61c-.68.58-1.4,1.13-2.1,1.69-.22.17-.42.34-.64.5a.58.58,0,0,0-.2.76c.37,1,.69,2.07,1,3.11a1.09,1.09,0,0,1,.11.42.7.7,0,0,1-.18.49.65.65,0,0,1-.53,0,10.29,10.29,0,0,1-1-.64Zm4.12-4.69-1.82,0c-1.47,0-1.46,0-1.95-1.4-.16-.47-.34-.94-.57-1.59-.16.47-.26.77-.35,1.06s-.27.89-.43,1.32c-.24.71-.25.71-1,.73l-1,0-1.27,0a14.71,14.71,0,0,0,1.8,1.47c.59.43.6.46.43,1.15s-.37,1.5-.58,2.37l2.5-1.78,2.57,1.64c-.08-.31-.12-.52-.19-.72-.18-.55-.35-1.11-.57-1.65a.75.75,0,0,1,.28-1C296.77,342,297.4,341.44,298.19,340.79Z"/><path class="cls-3" d="M298.19,340.79c-.79.65-1.42,1.19-2.08,1.7a.75.75,0,0,0-.28,1c.22.54.39,1.1.57,1.65.07.2.11.41.19.72L294,344.23l-2.5,1.78c.21-.87.39-1.62.58-2.37s.16-.72-.43-1.15a14.71,14.71,0,0,1-1.8-1.47l1.27,0,1,0c.72,0,.73,0,1-.73.16-.43.28-.88.43-1.32s.19-.59.35-1.06c.23.65.41,1.12.57,1.59.49,1.44.48,1.44,1.95,1.4Z"/><path d="M374.87,340.61l.84.12a26,26,0,0,0,8.25.21,11.72,11.72,0,0,0,1.39-.43,3,3,0,0,1,.5,0A97.77,97.77,0,0,0,382,352.22a43.25,43.25,0,0,0,6.48-.94,2.25,2.25,0,0,1-.57,1.13c-.71.9-1.44,1.78-2.19,2.66-2.06,2.41-4.19,4.77-6.19,7.23a48.92,48.92,0,0,0-5.16,7.79,3.58,3.58,0,0,1-.54.77,7.76,7.76,0,0,1,.42-2c.18-.68.38-1.36.58-2l.57-2c.2-.68.39-1.36.59-2l.57-2c.18-.68.36-1.37.55-2.05l.59-2.11-5.38.36c0-.3,0-.58.08-.84.31-1.53.7-3.05.94-4.58.34-2.15.57-4.3.86-6.45.15-1.18.33-2.36.51-3.54C374.72,341.25,374.79,341,374.87,340.61Zm5.44,12.89c.63-2.08,1.21-4,1.77-5.86s1.18-3.73,1.69-5.71c-2.68.86-5.24.51-7.86,0-.74,4.59-1.48,9.1-2.24,13.74l5.34-.29c-.93,3.28-1.85,6.47-2.76,9.66a1.86,1.86,0,0,0,.6-.58c.95-1.31,1.88-2.63,2.85-3.91a60.75,60.75,0,0,1,5.25-6.4c.43-.42.89-.8,1.41-1.28Z"/><path class="cls-3" d="M380.31,353.5l6.05-.63c-.52.48-1,.86-1.41,1.28a60.75,60.75,0,0,0-5.25,6.4c-1,1.28-1.9,2.6-2.85,3.91a1.86,1.86,0,0,1-.6.58c.91-3.19,1.83-6.38,2.76-9.66l-5.34.29c.76-4.64,1.5-9.15,2.24-13.74,2.62.51,5.18.86,7.86,0-.51,2-1.14,3.83-1.69,5.71S380.94,351.42,380.31,353.5Z"/><path d="M478.77,359.39a14,14,0,0,1-2.8,8.66,13,13,0,0,1-8.61,5.07,16,16,0,0,1-10.68-1.79,12.27,12.27,0,0,1-5-5.24,12.8,12.8,0,0,1-1.43-6.21,16,16,0,0,1,3-9.38,12.72,12.72,0,0,1,6-4.67,11.08,11.08,0,0,1,5.89-.66c.37.07.62.29.6.53a.64.64,0,0,1-.76.51,10.44,10.44,0,0,0-5.78.92,12,12,0,0,0-5.61,5.08,14.67,14.67,0,0,0-2.08,8.33,11.8,11.8,0,0,0,1.75,5.89,11.61,11.61,0,0,0,7.12,5.15,14.57,14.57,0,0,0,9.36-.33,11.72,11.72,0,0,0,7.36-8.24,13.92,13.92,0,0,0-.06-7.22,6.14,6.14,0,0,1-.15-.72.53.53,0,0,1,.39-.62c.3-.09.47.12.55.36a15.11,15.11,0,0,1,.57,2C478.6,357.75,478.69,358.75,478.77,359.39Z"/><path d="M466.11,343.74c.14-.53.52-.51.85-.55.84-.12,1.69-.18,2.53-.32a9,9,0,0,0,2.91-.93,3.7,3.7,0,0,0,1.65-1.71,12.73,12.73,0,0,0,1-3.87c.11-.74.18-1.49.25-2.24,0-.29.07-.56.41-.6s.44.25.48.61c.12,1,.17,2.09.36,3.12a17.83,17.83,0,0,0,.77,2.8,4.32,4.32,0,0,0,3.24,2.48,25.14,25.14,0,0,0,4,.64c.12,0,.25,0,.36,0s.43.17.4.44-.19.37-.44.41c-1.13.17-2.28.29-3.39.54a13.27,13.27,0,0,0-2.34.82,3.82,3.82,0,0,0-2,2.45,18.23,18.23,0,0,0-.88,4.79.79.79,0,0,1,0,.22c-.05.27-.12.54-.47.56s-.44-.18-.5-.59c-.2-1.35-.4-2.7-.62-4a6.86,6.86,0,0,0-.2-.78,4.26,4.26,0,0,0-3.19-3.12c-1.14-.28-2.29-.48-3.44-.7-.35-.07-.73-.08-1.08-.17A2.73,2.73,0,0,1,466.11,343.74Zm9.63,4.67a5.94,5.94,0,0,1,4.66-4.72,6,6,0,0,1-4.67-4.83,6.14,6.14,0,0,1-4.85,4.84A6,6,0,0,1,475.74,348.41Z"/><path d="M464.07,367.83a9.25,9.25,0,0,1-6-2.49,7.43,7.43,0,0,1-2.18-3.58c0-.12-.09-.26-.05-.35s.18-.38.32-.43a.61.61,0,0,1,.5.15,1.79,1.79,0,0,1,.34.64,7.3,7.3,0,0,0,5.81,4.79,7.92,7.92,0,0,0,6.37-1.17,7.71,7.71,0,0,0,3-3.7c.18-.46.29-.93.43-1.4s.38-.59.67-.51.43.37.34.77-.17.66-.27,1C472.16,365.26,468.53,367.84,464.07,367.83Z"/><path d="M466.08,352.64v-.35a.57.57,0,0,1,.44-.6c.34-.08.48.22.54.47a11.21,11.21,0,0,1,.22,1.29l.54,4.63a.81.81,0,0,1,0,.22c0,.28-.14.54-.47.56a.46.46,0,0,1-.51-.42c-.09-.42-.16-.85-.22-1.29C466.44,355.63,466.26,354.11,466.08,352.64Z"/><path d="M462.15,358a4.66,4.66,0,0,1,0,1,.63.63,0,0,1-.36.39.4.4,0,0,1-.52-.28,2.51,2.51,0,0,1-.12-.49c-.2-1.49-.41-3-.59-4.47a11.57,11.57,0,0,1,0-1.32.46.46,0,0,1,.4-.53c.28,0,.45.17.51.42.09.45.16.91.22,1.36C461.82,355.36,462,356.74,462.15,358Z"/><path class="cls-3" d="M475.74,348.41a6,6,0,0,0-4.86-4.71,6.14,6.14,0,0,0,4.85-4.84,6,6,0,0,0,4.67,4.83A5.94,5.94,0,0,0,475.74,348.41Z"/></svg>