<svg id="Layer_1" data-name="Layer 1" xmlns="http://www.w3.org/2000/svg" viewBox="0 0 115.72 115.22"><defs><style>.cls-1{fill:none;stroke-width:2px;}.cls-1,.cls-2{stroke:#000;stroke-miterlimit:10;}.cls-2,.cls-3{fill:#fff;}</style></defs><rect class="cls-1" x="32.29" y="33.06" width="53.48" height="56.15" transform="translate(-1.62 1.61) rotate(-1.54)"/><rect class="cls-2" x="29.29" y="30.06" width="53.48" height="56.15" transform="translate(-1.54 1.53) rotate(-1.54)"/><path d="M51.54,44.61l.85.12a26,26,0,0,0,8.25.21A12.32,12.32,0,0,0,62,44.51a2.85,2.85,0,0,1,.49,0,97.73,97.73,0,0,0-3.87,11.74,43.63,43.63,0,0,0,6.48-.94,2.25,2.25,0,0,1-.57,1.13c-.72.9-1.44,1.78-2.19,2.66-2.06,2.41-4.19,4.77-6.19,7.23A48.92,48.92,0,0,0,51,74.09a3.31,3.31,0,0,1-.55.77,7.78,7.78,0,0,1,.43-2c.18-.68.38-1.36.57-2s.39-1.36.58-2,.39-1.36.58-2,.39-1.36.57-2,.37-1.37.55-2,.38-1.35.6-2.11L49,60.92a7,7,0,0,1,.09-.84c.31-1.53.69-3,.94-4.58.33-2.15.56-4.3.85-6.45.16-1.18.34-2.36.51-3.54C51.39,45.25,51.46,45,51.54,44.61ZM57,57.5c.63-2.08,1.21-4,1.77-5.86s1.17-3.73,1.69-5.71c-2.69.86-5.25.51-7.86,0-.75,4.59-1.49,9.1-2.24,13.74l5.34-.29c-.94,3.28-1.85,6.47-2.76,9.66a2,2,0,0,0,.6-.58c.94-1.31,1.87-2.63,2.84-3.91a59.62,59.62,0,0,1,5.26-6.4c.42-.42.89-.8,1.41-1.28Z"/><path class="cls-3" d="M57,57.5l6-.63c-.52.48-1,.86-1.41,1.28a59.62,59.62,0,0,0-5.26,6.4c-1,1.28-1.9,2.6-2.84,3.91a2,2,0,0,1-.6.58c.91-3.19,1.82-6.38,2.76-9.66l-5.34.29c.75-4.64,1.49-9.15,2.24-13.74,2.61.51,5.17.86,7.86,0-.52,2-1.14,3.83-1.69,5.71S57.62,55.42,57,57.5Z"/></svg>