<svg id="Layer_1" data-name="Layer 1" xmlns="http://www.w3.org/2000/svg" viewBox="0 0 115.72 115.22"><defs><style>.cls-1{fill:none;stroke-width:2px;}.cls-1,.cls-2{stroke:#000;stroke-miterlimit:10;}.cls-2{fill:#fff;}</style></defs><rect class="cls-1" x="35.65" y="31.2" width="53.48" height="56.15" transform="translate(-1.57 1.7) rotate(-1.54)"/><rect class="cls-2" x="32.65" y="28.2" width="53.48" height="56.15" transform="translate(-1.49 1.62) rotate(-1.54)"/><path d="M72.58,60.63a14,14,0,0,1-2.79,8.67,13.12,13.12,0,0,1-8.61,5.07,16.09,16.09,0,0,1-10.69-1.79,12.35,12.35,0,0,1-5-5.25,13,13,0,0,1-1.43-6.2,16.16,16.16,0,0,1,3-9.39,12.85,12.85,0,0,1,6-4.67A11.06,11.06,0,0,1,59,46.42c.36.07.61.28.59.53a.63.63,0,0,1-.75.5,10.65,10.65,0,0,0-5.79.92,12,12,0,0,0-5.6,5.09,14.68,14.68,0,0,0-2.09,8.33,11.83,11.83,0,0,0,1.75,5.89,11.6,11.6,0,0,0,7.13,5.15,14.54,14.54,0,0,0,9.35-.33,11.7,11.7,0,0,0,7.36-8.24A13.85,13.85,0,0,0,70.88,57a5.59,5.59,0,0,1-.15-.71.55.55,0,0,1,.39-.62c.3-.09.48.12.55.36a15.11,15.11,0,0,1,.57,2C72.41,59,72.5,60,72.58,60.63Z"/><path d="M60,44.93c.14-.53.52-.51.84-.55.85-.12,1.7-.17,2.54-.31a9.34,9.34,0,0,0,2.91-.93,3.74,3.74,0,0,0,1.64-1.72,12.61,12.61,0,0,0,1-3.86c.1-.75.18-1.5.25-2.25,0-.29.07-.56.4-.6s.45.25.49.62c.11,1,.17,2.09.36,3.11a16.81,16.81,0,0,0,.77,2.8c.55,1.48,1.83,2.08,3.24,2.49a27.69,27.69,0,0,0,4,.64,2.1,2.1,0,0,1,.36,0c.22.06.43.17.4.45s-.19.36-.44.4c-1.14.17-2.28.29-3.4.54a13.17,13.17,0,0,0-2.33.82,3.84,3.84,0,0,0-2,2.45,18.22,18.22,0,0,0-.87,4.79c0,.08,0,.15,0,.22-.06.27-.12.54-.47.56s-.44-.18-.5-.59c-.2-1.35-.4-2.69-.62-4a5.64,5.64,0,0,0-.21-.78,4.23,4.23,0,0,0-3.19-3.11c-1.13-.28-2.28-.49-3.43-.71-.36-.07-.73-.08-1.08-.16A2.37,2.37,0,0,1,60,44.93Zm9.63,4.67a5.94,5.94,0,0,1,4.66-4.72,6,6,0,0,1-4.68-4.83,6.1,6.1,0,0,1-4.85,4.84A6,6,0,0,1,69.64,49.6Z"/><path d="M58.74,68.74a6,6,0,0,1-4.11-1.11,4.86,4.86,0,0,1-1.72-2.13c0-.08-.08-.16-.06-.23s.08-.26.17-.3a.41.41,0,0,1,.34,0,1.19,1.19,0,0,1,.27.39A4.82,4.82,0,0,0,57.81,68a5.21,5.21,0,0,0,4-1.31,5.05,5.05,0,0,0,1.61-2.65c.08-.31.11-.63.16-.94s.2-.41.39-.39.31.21.29.48-.06.44-.1.66A6.08,6.08,0,0,1,58.74,68.74Z"/><path d="M55.94,59a4.21,4.21,0,0,1,.48.71.56.56,0,0,1-.05.47.34.34,0,0,1-.51.08,2.43,2.43,0,0,1-.34-.3c-.93-1-1.86-2-2.77-3-.26-.29-.47-.63-.71-1a.43.43,0,0,1,0-.6.4.4,0,0,1,.58,0c.3.28.59.58.87.88Z"/><path d="M54.4,60.09a4.18,4.18,0,0,1-.36.78.54.54,0,0,1-.42.18.37.37,0,0,1-.33-.42,3.4,3.4,0,0,1,.08-.46c.37-1.3.73-2.61,1.11-3.91a11.46,11.46,0,0,1,.44-1.1.4.4,0,0,1,.51-.29.43.43,0,0,1,.26.54c-.09.41-.19.81-.3,1.21C55.05,57.82,54.7,59,54.4,60.09Z"/><path d="M62.69,57.38a4.38,4.38,0,0,1,.49.71.63.63,0,0,1-.06.48.33.33,0,0,1-.51.07,1.92,1.92,0,0,1-.34-.3c-.92-1-1.85-2-2.76-3a11.28,11.28,0,0,1-.72-1,.43.43,0,0,1,0-.6.4.4,0,0,1,.58,0c.31.28.59.58.88.89Z"/><path d="M61.15,58.45a4,4,0,0,1-.35.78.58.58,0,0,1-.43.18.35.35,0,0,1-.32-.42,2.22,2.22,0,0,1,.07-.45c.37-1.31.73-2.62,1.12-3.92.11-.38.29-.73.43-1.1a.41.41,0,0,1,.51-.29.43.43,0,0,1,.26.54c-.08.41-.19.81-.3,1.21C61.8,56.18,61.45,57.38,61.15,58.45Z"/></svg>