<svg id="Layer_1" data-name="Layer 1" xmlns="http://www.w3.org/2000/svg" viewBox="0 0 115.72 115.22"><defs><style>.cls-1{fill:none;stroke-width:2px;}.cls-1,.cls-2{stroke:#000;stroke-miterlimit:10;}.cls-2,.cls-3{fill:#fff;}</style></defs><rect class="cls-1" x="31.23" y="29.52" width="53.48" height="56.15" transform="translate(-1.53 1.58) rotate(-1.54)"/><rect class="cls-2" x="28.23" y="26.52" width="53.48" height="56.15" transform="translate(-1.45 1.5) rotate(-1.54)"/><path d="M47.11,44.64c.2-1.34.36-2.67.61-4A10.42,10.42,0,0,1,50.1,35.4a5,5,0,0,1,4.62-1.83,8,8,0,0,1,2.41.54,6.3,6.3,0,0,1,3,3.43,15.47,15.47,0,0,1,1.11,5.63c0,.38.06.77.1,1.22.56,0,1.12,0,1.68,0a29.71,29.71,0,0,1,3.76.47.67.67,0,0,1,.59.72c0,.85.11,1.7.19,2.55.17,2,.36,4.07.54,6.11.15,1.84.29,3.69.44,5.53s.3,3.69.43,5.53.23,3.5.35,5.25c0,.59.11,1.17.14,1.75s-.07.79-.69.88a29.14,29.14,0,0,1-4.94.51c-1.17,0-2.35,0-3.52,0-3.13,0-6.25-.09-9.38-.15-2,0-3.91-.1-5.86-.14l-4.54-.09c-.75,0-.93-.18-.88-.9.12-1.63.27-3.25.39-4.88.06-.94.09-1.89.16-2.84.08-1.14.18-2.28.28-3.42.07-.9.13-1.8.2-2.7.12-1.45.25-2.91.37-4.36.06-.8.1-1.61.17-2.41.1-1.14.22-2.27.31-3.41.07-.88.13-1.75.18-2.63,0-.7.22-.89.92-.92C44.15,44.77,45.63,44.7,47.11,44.64Zm11.23.85-10.14.16c0,.34,0,.58,0,.82,0,.41-.24.64-.56.63s-.51-.27-.51-.67v-.71H42.65c-.66,8.91-1.32,17.73-2,26.59,7.92.33,15.74.22,23.63.29,0-1,0-2,0-2.91-.06-1.85-.18-3.7-.23-5.55-.07-2.42-.11-4.84-.16-7.25,0-.56,0-1.13,0-1.69-.07-1.8-.17-3.6-.23-5.4-.05-1.27,0-2.54-.06-3.81a5.19,5.19,0,0,0-.06-.52h-4c0,.2,0,.34,0,.49a4.34,4.34,0,0,1,0,.51c0,.37-.31.67-.59.61a.58.58,0,0,1-.52-.61C58.33,46.18,58.34,45.89,58.34,45.49Zm0-1a1.77,1.77,0,0,0,.05-.38c-.07-1.22-.1-2.43-.24-3.64a10,10,0,0,0-1.22-3.81,4,4,0,0,0-1.52-1.55A1.26,1.26,0,0,0,54.22,35a5,5,0,0,0-2.67,2.58,14.14,14.14,0,0,0-1.28,5.07,19.24,19.24,0,0,0,0,2ZM68.45,71.57c-.69-8.71-1.36-17.25-2-25.8l-1.92-.22a4.08,4.08,0,0,0,0,.59c0,1,.09,1.9.13,2.85.11,2.41.2,4.82.3,7.23,0,1.2.11,2.39.15,3.59.06,2.19.11,4.39.14,6.58,0,1.44,0,2.89,0,4.33a5.84,5.84,0,0,0,.08,1,4.46,4.46,0,0,0,.26.78A6.36,6.36,0,0,0,68,72.19c-.46-.69-.47-.72-.28-1.28ZM49.08,44.65c.14-1.15.27-2.24.39-3.32A10.55,10.55,0,0,1,52.23,35a3.85,3.85,0,0,0-1.4,1,8.59,8.59,0,0,0-1.78,3.41,19.3,19.3,0,0,0-.78,5.2Zm11.16-.22c0-.67,0-1.28,0-1.88a13,13,0,0,0-1-4.76,5.58,5.58,0,0,0-1.73-2.31c0,.09,0,.15,0,.18a9.39,9.39,0,0,1,1.46,3.48,24.72,24.72,0,0,1,.53,4.93c0,.11,0,.23.06.36Z"/><path class="cls-3" d="M58.34,45.49c0,.4,0,.69,0,1a.58.58,0,0,0,.52.61c.28.06.56-.24.59-.61a4.34,4.34,0,0,0,0-.51c0-.15,0-.29,0-.49h4a5.19,5.19,0,0,1,.06.52c0,1.27,0,2.54.06,3.81.06,1.8.16,3.6.23,5.4,0,.56,0,1.13,0,1.69.05,2.41.09,4.83.16,7.25.05,1.85.17,3.7.23,5.55,0,.94,0,1.89,0,2.91-7.89-.07-15.71,0-23.63-.29.66-8.86,1.32-17.68,2-26.59h4.48v.71c0,.4.2.66.51.67s.54-.22.56-.63c0-.24,0-.48,0-.82Zm-11.18,15c.64-.13,1.11-.11,1.29.56,0,.1.31.12.48.18a2.46,2.46,0,0,0,.11-.45.74.74,0,0,0-.08-.28c-.25-.74-.49-1.48-.74-2.21s-.2-.59-.91-.52c-.34,1-.69,2-1,3a.52.52,0,0,0,.05.43.36.36,0,0,0,.56-.13A5.26,5.26,0,0,0,47.16,60.52Zm11.78-2.07-.64,1c-.24.39-.52.77-.72,1.17s-.09.65.32.67c.56,0,1.12,0,1.68,0,.2,0,.38-.1.36-.37s-.18-.32-.39-.32-.67,0-1.09,0c.15-.27.24-.43.34-.59.32-.52.66-1,1-1.55a4.44,4.44,0,0,0,.21-.71c-.75,0-1.39,0-2,0a.43.43,0,0,0-.33.27c-.08.24.1.35.32.37Zm-5.45,0v1.89a3.75,3.75,0,0,0,0,.58.38.38,0,0,0,.45.36c.25,0,.29-.2.28-.43,0-.67,0-1.35,0-2,0-.11,0-.23,0-.34.83-.2.83-.2.72-.76-.67,0-1.35,0-2,0-.11,0-.32.16-.31.22a.61.61,0,0,0,.24.38A2.35,2.35,0,0,0,53.49,58.47Zm-2.35,0a3.49,3.49,0,0,0,.71-.15.4.4,0,0,0,.22-.32.36.36,0,0,0-.27-.25q-1,0-2,0a.36.36,0,0,0-.26.25.42.42,0,0,0,.2.33,4,4,0,0,0,.64.14c0,.7,0,1.38,0,2.06a1.3,1.3,0,0,0,.1.56.43.43,0,0,0,.34.19.48.48,0,0,0,.27-.27,1.73,1.73,0,0,0,0-.51Zm4.8-.7c0,1.1,0,2.12,0,3.13a.49.49,0,0,0,.34.37c.13,0,.27-.2.4-.33s0-.09,0-.14q0-1.45,0-2.91s0-.08-.08-.12Z"/><path class="cls-3" d="M58.33,44.45l-8.07.19a19.24,19.24,0,0,1,0-2,14.14,14.14,0,0,1,1.28-5.07A5,5,0,0,1,54.22,35a1.26,1.26,0,0,1,1.18.09,4,4,0,0,1,1.52,1.55,10,10,0,0,1,1.22,3.81c.14,1.21.17,2.42.24,3.64A1.77,1.77,0,0,1,58.33,44.45Z"/><path class="cls-3" d="M68.45,71.57l-.74-.66c-.19.56-.18.59.28,1.28a6.36,6.36,0,0,1-2.46.33,4.46,4.46,0,0,1-.26-.78,5.84,5.84,0,0,1-.08-1c0-1.44,0-2.89,0-4.33,0-2.19-.08-4.39-.14-6.58,0-1.2-.1-2.39-.15-3.59-.1-2.41-.19-4.82-.3-7.23,0-1-.09-1.9-.13-2.85a4.08,4.08,0,0,1,0-.59l1.92.22C67.09,54.32,67.76,62.86,68.45,71.57Zm-1.84-1.52.7.64c.06-.13.1-.17.1-.22a.31.31,0,0,0,0-.2,3.11,3.11,0,0,1-.54-2c-.17-1.86-.28-3.73-.42-5.59a7.08,7.08,0,0,0-.16-.8l-.19,0c-.31,2.77.3,5.55-.07,8.43Z"/><path class="cls-3" d="M49.08,44.65h-.81a19.3,19.3,0,0,1,.78-5.2A8.59,8.59,0,0,1,50.83,36a3.85,3.85,0,0,1,1.4-1,10.55,10.55,0,0,0-2.76,6.31C49.35,42.41,49.22,43.5,49.08,44.65Z"/><path class="cls-3" d="M60.24,44.43h-.72c0-.13-.05-.25-.06-.36a24.72,24.72,0,0,0-.53-4.93,9.39,9.39,0,0,0-1.46-3.48s0-.09,0-.18a5.58,5.58,0,0,1,1.73,2.31,13,13,0,0,1,1,4.76C60.27,43.15,60.24,43.76,60.24,44.43Z"/><path d="M47.16,60.52a5.26,5.26,0,0,1-.26.59.36.36,0,0,1-.56.13.52.52,0,0,1-.05-.43c.33-1,.68-2,1-3,.71-.07.71-.07.91.52s.49,1.47.74,2.21a.74.74,0,0,1,.08.28,2.46,2.46,0,0,1-.11.45c-.17-.06-.46-.08-.48-.18C48.27,60.41,47.8,60.39,47.16,60.52Zm.81-.75-.32-.86-.28.86Z"/><path d="M58.94,58.45l-1-.05c-.22,0-.4-.13-.32-.37a.43.43,0,0,1,.33-.27c.63,0,1.27,0,2,0a4.44,4.44,0,0,1-.21.71c-.31.53-.65,1-1,1.55-.1.16-.19.32-.34.59.42,0,.75,0,1.09,0s.37.06.39.32-.16.36-.36.37c-.56,0-1.12,0-1.68,0-.41,0-.53-.26-.32-.67s.48-.78.72-1.17Z"/><path d="M53.49,58.47a2.35,2.35,0,0,1-.61-.12.61.61,0,0,1-.24-.38c0-.06.2-.21.31-.22.68,0,1.36,0,2,0,.11.56.11.56-.72.76,0,.11,0,.23,0,.34,0,.68,0,1.36,0,2,0,.23,0,.39-.28.43a.38.38,0,0,1-.45-.36,3.75,3.75,0,0,1,0-.58Z"/><path d="M51.14,58.48v2a1.73,1.73,0,0,1,0,.51.48.48,0,0,1-.27.27.43.43,0,0,1-.34-.19,1.3,1.3,0,0,1-.1-.56c0-.68,0-1.36,0-2.06a4,4,0,0,1-.64-.14.42.42,0,0,1-.2-.33.36.36,0,0,1,.26-.25q1,0,2,0a.36.36,0,0,1,.27.25.4.4,0,0,1-.22.32A3.49,3.49,0,0,1,51.14,58.48Z"/><path d="M55.94,57.78h.66s.08.08.08.12q0,1.45,0,2.91s0,.12,0,.14-.27.34-.4.33a.49.49,0,0,1-.34-.37C55.93,59.9,55.94,58.88,55.94,57.78Z"/><path d="M66.61,70.05l-.63.28c.37-2.88-.24-5.66.07-8.43l.19,0a7.08,7.08,0,0,1,.16.8c.14,1.86.25,3.73.42,5.59a3.11,3.11,0,0,0,.54,2,.31.31,0,0,1,0,.2s0,.09-.1.22Z"/><path class="cls-3" d="M48,59.77h-.6l.28-.86Z"/></svg>