<svg id="Layer_1" data-name="Layer 1" xmlns="http://www.w3.org/2000/svg" viewBox="0 0 115.72 115.22"><defs><style>.cls-1{fill:none;stroke-width:2px;}.cls-1,.cls-2{stroke:#000;stroke-miterlimit:10;}.cls-2,.cls-3{fill:#fff;}</style></defs><rect class="cls-1" x="34.68" y="33.06" width="53.48" height="56.15" transform="translate(-1.62 1.67) rotate(-1.54)"/><rect class="cls-2" x="31.68" y="30.06" width="53.48" height="56.15" transform="translate(-1.54 1.59) rotate(-1.54)"/><path d="M61.85,63c.25.14.54.32.83.47L75.8,70.28c.8.41,1.6.83,2.41,1.23a2.4,2.4,0,0,1,1.33,2.81,2.34,2.34,0,0,1-2.3,1.8l-35.44,1a2.24,2.24,0,0,1-2.29-1.49A2.37,2.37,0,0,1,40.08,73a3.55,3.55,0,0,1,.71-.51l14-8.2c1.14-.67,2.26-1.36,3.4-2a.77.77,0,0,0,.45-.82c-.05-.73-.05-1.46-.07-2.2a1.29,1.29,0,0,1,.88-1.36,6,6,0,0,0,1-.54,1.83,1.83,0,0,0,.87-2,2.13,2.13,0,0,0-1.54-1.69,2.4,2.4,0,0,0-3.11,1.65,2.24,2.24,0,0,0,.64,2.27A.88.88,0,0,1,57.37,59a.41.41,0,0,1-.68.07,4.8,4.8,0,0,1-1.13-4.4,3.7,3.7,0,0,1,3.53-2.39,3.52,3.52,0,0,1,3.27,2.39,2.86,2.86,0,0,1-.8,3.27c-.52.44-1.11.79-1.74,1.23l.07,2.51a2.12,2.12,0,0,0,1.32-.58.61.61,0,0,1,.85-.17,1.1,1.1,0,0,1,.39,1A11.9,11.9,0,0,1,61.85,63ZM70.5,75.07l6.68-.19a1.14,1.14,0,0,0,1.2-.88,1.24,1.24,0,0,0-.71-1.39l-6.29-3.28c-3.86-2-7.73-4-11.58-6a1.11,1.11,0,0,0-1.21.06C56,64.93,53.43,66.46,50.85,68l-9.4,5.54a2.1,2.1,0,0,0-.54.38,1.14,1.14,0,0,0,.76,2,1.43,1.43,0,0,0,.29,0c4-.09,8.07-.16,12.11-.27,3.69-.11,7.38-.25,11.07-.37ZM60.12,62.17l1.22.61c-.08-.4.11-.85-.38-1Z"/><path d="M58.24,48.7l-3.56,2.59-.51-.38,1.13-4.36L53.05,45c-.36-.25-.72-.5-1.06-.78-.12-.1-.27-.34-.23-.41a1.22,1.22,0,0,1,.46-.41,1.26,1.26,0,0,1,.44,0L56,43.16l.25-.06c.53-1.5.87-3.08,1.47-4.57a.82.82,0,0,1,.74.66c.43,1.27.9,2.53,1.36,3.83l2.49,0c.49,0,1,0,1.47,0,.26,0,.55,0,.58.31a.82.82,0,0,1-.27.61c-.69.58-1.41,1.13-2.11,1.69-.21.17-.42.34-.64.5a.57.57,0,0,0-.19.76c.36,1,.69,2.07,1,3.11a1.17,1.17,0,0,1,.12.42.73.73,0,0,1-.19.49.58.58,0,0,1-.53,0c-.34-.18-.65-.42-1-.63ZM62.37,44l-1.82.05c-1.47,0-1.47,0-1.95-1.39-.16-.48-.34-1-.57-1.6l-.36,1.07c-.14.43-.27.88-.42,1.31-.25.71-.25.71-1,.73l-1,0-1.27,0a14,14,0,0,0,1.8,1.46c.59.44.59.46.42,1.15s-.37,1.5-.58,2.37l2.51-1.78,2.56,1.65c-.08-.31-.12-.52-.18-.73-.19-.55-.36-1.11-.58-1.65a.76.76,0,0,1,.28-1C60.94,45.21,61.57,44.67,62.37,44Z"/><path class="cls-3" d="M62.37,44c-.8.66-1.43,1.2-2.09,1.7a.76.76,0,0,0-.28,1c.22.54.39,1.1.58,1.65.06.21.1.42.18.73L58.2,47.45l-2.51,1.78c.21-.87.4-1.62.58-2.37s.17-.71-.42-1.15a14,14,0,0,1-1.8-1.46l1.27,0,1,0c.73,0,.73,0,1-.73.15-.43.28-.88.42-1.31L58,41.07c.23.65.41,1.12.57,1.6.48,1.43.48,1.44,1.95,1.39Z"/></svg>