<svg id="Layer_1" data-name="Layer 1" xmlns="http://www.w3.org/2000/svg" viewBox="0 0 115.72 115.22"><defs><style>.cls-1{fill:none;stroke-width:2px;}.cls-1,.cls-2{stroke:#000;stroke-miterlimit:10;}.cls-2,.cls-3{fill:#fff;}</style></defs><rect class="cls-1" x="32.93" y="30.9" width="53.48" height="56.15" transform="translate(-1.57 1.63) rotate(-1.54)"/><rect class="cls-2" x="29.93" y="27.9" width="53.48" height="56.15" transform="translate(-1.49 1.54) rotate(-1.54)"/><path d="M67.09,55.94a1.36,1.36,0,0,1,.82,1.38c.07,2.37.2,4.74.3,7.11,0,.37.07.72-.28,1a.75.75,0,0,0-.11.51c.09,1.44.2,2.88.29,4.33,0,.52,0,1,.07,1.58a.61.61,0,0,1-.51.71,2.56,2.56,0,0,1-.62.06l-17.13.66c-1,0-2,0-3,0-.55,0-1.1.1-1.65.14s-.89,0-1.06-.53c-.49-.13-.53-.83-1.12-.84-.11,0-.27-.25-.29-.4a14.06,14.06,0,0,1-.06-1.45c0-.82,0-1.65,0-2.48,0-.57,0-1.14,0-1.72a.57.57,0,0,0-.23-.42c-.35-.13-.35-.4-.36-.67l-.3-8.08c0-.63,0-.65.67-.89,0-.18,0-.39,0-.59l0-.76q-.15-4.83-.28-9.66c0-.67,0-.74.7-.85A10.32,10.32,0,0,1,44.16,44,14.37,14.37,0,0,0,47,43.45c.48-.11.85-.14,1.18.37a2.05,2.05,0,0,0,1,.59,10.8,10.8,0,0,0,3.09.61,12.93,12.93,0,0,0,4.51-.44,11.19,11.19,0,0,0,1.79-.69,1.29,1.29,0,0,0,.75-.67.64.64,0,0,1,.8-.36c.86.14,1.73.26,2.59.35a12.07,12.07,0,0,0,1.59,0,.92.92,0,0,1,1.08.8c.88.16,1.12.45,1.16,1.34,0,1.4.08,2.81.16,4.21C66.8,51.7,67,53.78,67.09,55.94Zm-1,8L65.74,56l-23,.88A68.31,68.31,0,0,0,43,64.79ZM62.48,54l1.18,1.12,1.26,0L64.45,47c-.28.31-.54.36-.75.08a1.64,1.64,0,0,0-1.14-.59c-.69-.11-1.15-.42-1.21-1.16l-.47.08-.17-1.45-.5,0c-.05.33-.09.62-.13.91A6.28,6.28,0,0,1,57.89,49a6.16,6.16,0,0,1-4.6,1.5,6,6,0,0,1-4.7-2.53,7.37,7.37,0,0,1-1.26-3.31,1.86,1.86,0,0,0-.08-.26l-.7.14a19.64,19.64,0,0,0,.62,2.35A5.93,5.93,0,0,0,49.72,50a7.75,7.75,0,0,0,8.41-.36c.18-.11.31-.33.63-.24A6.18,6.18,0,0,1,57,50.87a7.36,7.36,0,0,1-5.64.35,6.81,6.81,0,0,1-3.92-3.28c-.35-.61-.61-1.27-.91-1.92-.17-.39-.25-.44-.61-.31l-1.67.64c-.12,0-.31.14-.32.23-.07.44-.48.42-.73.56,0,3,.07,5.91.23,8.85,1,0,1.9,0,2.82,0,3.66-.15,7.32-.33,11-.5,1.33-.06,2.66-.15,4-.2.4,0,.64-.13.69-.58A.89.89,0,0,1,62.48,54ZM43.62,71.16a1.11,1.11,0,0,0,.27.06c2,0,4,0,5.94-.09,1.82,0,3.63-.17,5.45-.26l6.63-.33c1.08-.05,2.16-.08,3.24-.12l.71,0a53.42,53.42,0,0,0-.34-5.58c-5.52,0-21.2.65-21.87.88Zm5.25-24.39c.59,1.67,2.91,3.16,5.51,2.89a5.23,5.23,0,0,0,4.38-3.33c-.66.13-1.27.55-2,.33a2.81,2.81,0,0,1,.66-.44l1.45-.79a.73.73,0,0,0,.38-.9,14.09,14.09,0,0,1-11,.49.86.86,0,0,0,.69,1c.7.22,1.38.47,2.07.72.09,0,.14.13.23.23-.1.06-.16.13-.21.13Zm-5.74-1c1-.52,2.15-.29,3-1.11a27.76,27.76,0,0,0-3,.25ZM61.34,44c.14.19.2.35.28.36.84.17,1.69.32,2.54.46.06,0,.12,0,.18-.06l0-.61Zm3,2.06c.13-.35,0-.49-.29-.5s-.78,0-1.17,0v.19Zm2.4,15h0l.11,2.86h0Zm-1.1-7.12h0l0,.87h0Z"/><path d="M68.55,32.62c.34,0,.35.3.39.51.12.56.2,1.13.32,1.69a13,13,0,0,0,.34,1.26,2,2,0,0,0,1.49,1.39c.75.18,1.53.27,2.29.4a4.64,4.64,0,0,1,.74.16c.07,0,.11.17.21.34l-.88.26c-.62.16-1.25.28-1.87.45a2.81,2.81,0,0,0-2,2.6c-.1.68-.15,1.37-.23,2,0,.19-.06.41-.3.37s-.24-.21-.35-.34,0-.13,0-.2c-.06-.34-.1-.68-.18-1-.13-.52-.26-1-.42-1.53a2.51,2.51,0,0,0-2.11-1.75c-.64-.13-1.3-.18-2-.28a5.47,5.47,0,0,1-.58-.15c-.11-.42.18-.46.41-.51.49-.11,1-.19,1.49-.29l.13,0A2.88,2.88,0,0,0,68,35.35c.06-.65.18-1.31.25-2A.89.89,0,0,1,68.55,32.62Zm-1.74,5.92a3.19,3.19,0,0,1,2.06,2.05,3.4,3.4,0,0,1,2-2.24,3,3,0,0,1-2.15-1.86A3.74,3.74,0,0,1,66.81,38.54Z"/><path class="cls-3" d="M66,63.91,43,64.79a68.31,68.31,0,0,1-.24-7.88l23-.88ZM49.66,61.77a.43.43,0,0,0,.62-.15c.3-.37.6-.37.92,0s.35.23.59,0c-.25-.65-.48-1.29-.76-1.91a.71.71,0,0,0-.4-.29c-.07,0-.25.12-.29.23C50.1,60.37,49.89,61.06,49.66,61.77Zm8.54-2-1,1.74a4.58,4.58,0,0,0,1.65,0s.13-.13.13-.2a.26.26,0,0,0-.15-.2c-.23,0-.48,0-.74-.06.22-.66.76-1.12.87-1.86l-1.61.06C57.39,59.9,57.93,59.48,58.2,59.74Zm-3.5,1.9c.54,0,.56,0,.54-.43s0-.92-.05-1.32c.16-.26.66-.08.53-.62-.39,0-.8,0-1.2,0-.2,0-.47,0-.49.24s.29.19.47.25.06.07.13.14Zm-1-2,0-.17c-.11-.06-.22-.16-.33-.16a6.62,6.62,0,0,0-1.09,0c-.12,0-.23.17-.34.26l.36.21.19.12c0,.45,0,.91,0,1.36s.17.5.59.34l-.06-1.77Zm3.2,1.86c0-.68,0-1.34-.09-2,0-.11-.18-.21-.27-.31-.09.11-.25.21-.25.32,0,.57,0,1.14,0,1.71C56.34,61.59,56.52,61.65,56.89,61.54Z"/><path class="cls-3" d="M62.48,54a.89.89,0,0,0-.58.69c0,.45-.29.56-.69.58-1.34.05-2.67.14-4,.2-3.66.17-7.32.35-11,.5-.92,0-1.84,0-2.82,0-.16-2.94-.26-5.87-.23-8.85.25-.14.66-.12.73-.56,0-.09.2-.18.32-.23l1.67-.64c.36-.13.44-.08.61.31.3.65.56,1.31.91,1.92a6.81,6.81,0,0,0,3.92,3.28A7.36,7.36,0,0,0,57,50.87a6.18,6.18,0,0,0,1.78-1.46c-.32-.09-.45.13-.63.24a7.75,7.75,0,0,1-8.41.36,5.93,5.93,0,0,1-2.55-3.16,19.64,19.64,0,0,1-.62-2.35l.7-.14a1.86,1.86,0,0,1,.08.26,7.37,7.37,0,0,0,1.26,3.31,6,6,0,0,0,4.7,2.53,6.16,6.16,0,0,0,4.6-1.5,6.28,6.28,0,0,0,2.19-4.17c0-.29.08-.58.13-.91l.5,0,.17,1.45.47-.08c.06.74.52,1.05,1.21,1.16A1.64,1.64,0,0,1,63.7,47c.21.28.47.23.75-.08l.47,8.14-1.26,0Zm-17.62.63c-.37.52-.38.55-.34,1C45.06,55.45,45.1,55.35,44.86,54.66Z"/><path class="cls-3" d="M43.62,71.16l0-5.47c.67-.23,16.35-.85,21.87-.88a53.42,53.42,0,0,1,.34,5.58l-.71,0c-1.08,0-2.16.07-3.24.12l-6.63.33c-1.82.09-3.63.21-5.45.26-2,.06-4,.07-5.94.09A1.11,1.11,0,0,1,43.62,71.16ZM62.38,70c1.27.43,1.83.1,2.17-.84A4,4,0,0,0,62.38,70Z"/><path class="cls-3" d="M48.87,46.77l2.14.31c.05,0,.11-.07.21-.13-.09-.1-.14-.2-.23-.23-.69-.25-1.37-.5-2.07-.72a.86.86,0,0,1-.69-1,14.09,14.09,0,0,0,11-.49.73.73,0,0,1-.38.9l-1.45.79a2.81,2.81,0,0,0-.66.44c.74.22,1.35-.2,2-.33a5.23,5.23,0,0,1-4.38,3.33C51.78,49.93,49.46,48.44,48.87,46.77Zm3.44,2.56,3-.12c.35,0,.48-.19.46-.53,0-.53,0-1-.06-1.56l.72-.4a9.25,9.25,0,0,0-4.84.22C52.45,47.63,51.83,48.55,52.31,49.33Z"/><path class="cls-3" d="M43.13,45.81l0-.86a27.76,27.76,0,0,1,3-.25C45.28,45.52,44.1,45.29,43.13,45.81Z"/><path class="cls-3" d="M61.34,44l3,.15,0,.61c-.06,0-.12.07-.18.06-.85-.14-1.7-.29-2.54-.46C61.54,44.37,61.48,44.21,61.34,44Z"/><path class="cls-3" d="M64.35,46.08l-1.47-.28v-.19c.39,0,.78,0,1.17,0S64.48,45.73,64.35,46.08Z"/><ellipse class="cls-3" cx="66.8" cy="62.46" ry="2.02" transform="translate(-2.34 2.6) rotate(-2.19)"/><path class="cls-3" d="M65.65,53.91l0,.88h0l0-.87Z"/><path class="cls-3" d="M66.81,38.54a3.74,3.74,0,0,0,1.91-2,3,3,0,0,0,2.15,1.86,3.4,3.4,0,0,0-2,2.24A3.19,3.19,0,0,0,66.81,38.54Z"/><path d="M49.66,61.77c.23-.71.44-1.4.68-2.08,0-.11.22-.25.29-.23a.71.71,0,0,1,.4.29c.28.62.51,1.26.76,1.91-.24.19-.39.2-.59,0s-.62-.37-.92,0A.43.43,0,0,1,49.66,61.77Z"/><path d="M58.2,59.74c-.27-.26-.81.16-.81-.51L59,59.17c-.11.74-.65,1.2-.87,1.86.26,0,.51,0,.74.06a.26.26,0,0,1,.15.2c0,.07-.08.2-.13.2a4.58,4.58,0,0,1-1.65,0Z"/><path d="M54.7,61.64l-.07-1.72c-.07-.07-.1-.12-.13-.14s-.49.08-.47-.25.29-.24.49-.24c.4,0,.81,0,1.2,0,.13.54-.37.36-.53.62,0,.4,0,.86.05,1.32S55.24,61.6,54.7,61.64Z"/><path d="M53.69,59.68l-.61.22.06,1.77c-.42.16-.58,0-.59-.34s0-.91,0-1.36l-.19-.12L52,59.64c.11-.09.22-.24.34-.26a6.62,6.62,0,0,1,1.09,0c.11,0,.22.1.33.16Z"/><path d="M56.89,61.54c-.37.11-.55.05-.56-.27,0-.57-.06-1.14,0-1.71,0-.11.16-.21.25-.32.09.1.26.2.27.31C56.85,60.2,56.86,60.86,56.89,61.54Z"/><path d="M44.86,54.66c.24.69.2.79-.34,1C44.48,55.21,44.49,55.18,44.86,54.66Z"/><path d="M62.38,70a4,4,0,0,1,2.17-.84C64.21,70.12,63.65,70.45,62.38,70Z"/><path d="M52.31,49.33c-.48-.78.14-1.7-.69-2.39a9.25,9.25,0,0,1,4.84-.22l-.72.4c0,.51,0,1,.06,1.56,0,.34-.11.52-.46.53Zm.58-1.94c0,1,0,1,.42,1-.58-.42-.15-.69.12-1ZM55,47.3l-.35,0,.22,1.06C55.09,48,54.94,47.69,55,47.3Z"/><path class="cls-3" d="M52.89,47.39l.54,0c-.27.33-.7.6-.12,1C52.85,48.39,52.85,48.39,52.89,47.39Z"/><path class="cls-3" d="M55,47.3c0,.39.13.71-.13,1.09l-.22-1.06Z"/></svg>